<?xml version="1.0"?>
<svg height="320" version="1.1" width="600" xmlns:xlink="http://www.w3.org/1999/xlink" xmlns="http://www.w3.org/2000/svg"><g><g stroke-dasharray="1 1" stroke="#ccc"><line x1="89.11" x2="89.11" y1="280.00" y2="20.00" /><line x1="145.90" x2="145.90" y1="280.00" y2="20.00" /><line x1="202.68" x2="202.68" y1="280.00" y2="20.00" /><line x1="259.47" x2="259.47" y1="280.00" y2="20.00" /><line x1="316.26" x2="316.26" y1="280.00" y2="20.00" /><line x1="373.04" x2="373.04" y1="280.00" y2="20.00" /><line x1="429.83" x2="429.83" y1="280.00" y2="20.00" /><line x1="486.61" x2="486.61" y1="280.00" y2="20.00" /><line x1="543.40" x2="543.40" y1="280.00" y2="20.00" /><line x1="50.00" x2="580.00" y1="266.07" y2="266.07" /><line x1="50.00" x2="580.00" y1="242.86" y2="242.86" /><line x1="50.00" x2="580.00" y1="219.64" y2="219.64" /><line x1="50.00" x2="580.00" y1="196.43" y2="196.43" /><line x1="50.00" x2="580.00" y1="173.21" y2="173.21" /><line x1="50.00" x2="580.00" y1="150.00" y2="150.00" /><line x1="50.00" x2="580.00" y1="126.78" y2="126.78" /><line x1="50.00" x2="580.00" y1="103.57" y2="103.57" /><line x1="50.00" x2="580.00" y1="80.36" y2="80.36" /><line x1="50.00" x2="580.00" y1="57.14" y2="57.14" /><line x1="50.00" x2="580.00" y1="33.93" y2="33.93" /></g><g stroke-width="4px" stroke="#ff5500"><line x1="78.39" x2="78.39" y1="150.00" y2="280.00" /><line x1="82.18" x2="82.18" y1="155.80" y2="280.00" /><line x1="85.96" x2="85.96" y1="161.59" y2="280.00" /><line x1="89.75" x2="89.75" y1="167.34" y2="280.00" /><line x1="93.54" x2="93.54" y1="173.06" y2="280.00" /><line x1="97.32" x2="97.32" y1="178.71" y2="280.00" /><line x1="101.11" x2="101.11" y1="184.30" y2="280.00" /><line x1="104.89" x2="104.89" y1="189.80" y2="280.00" /><line x1="108.68" x2="108.68" y1="195.20" y2="280.00" /><line x1="112.46" x2="112.46" y1="200.49" y2="280.00" /><line x1="116.25" x2="116.25" y1="205.65" y2="280.00" /><line x1="120.04" x2="120.04" y1="210.67" y2="280.00" /><line x1="123.82" x2="123.82" y1="215.54" y2="280.00" /><line x1="127.61" x2="127.61" y1="220.24" y2="280.00" /><line x1="131.39" x2="131.39" y1="224.77" y2="280.00" /><line x1="135.18" x2="135.18" y1="229.12" y2="280.00" /><line x1="138.96" x2="138.96" y1="233.26" y2="280.00" /><line x1="142.75" x2="142.75" y1="237.20" y2="280.00" /><line x1="146.54" x2="146.54" y1="240.92" y2="280.00" /><line x1="150.32" x2="150.32" y1="244.41" y2="280.00" /><line x1="154.11" x2="154.11" y1="247.67" y2="280.00" /><line x1="157.89" x2="157.89" y1="250.68" y2="280.00" /><line x1="161.68" x2="161.68" y1="253.44" y2="280.00" /><line x1="165.46" x2="165.46" y1="255.95" y2="280.00" /><line x1="169.25" x2="169.25" y1="258.18" y2="280.00" /><line x1="173.04" x2="173.04" y1="260.15" y2="280.00" /><line x1="176.82" x2="176.82" y1="261.84" y2="280.00" /><line x1="180.61" x2="180.61" y1="263.25" y2="280.00" /><line x1="184.39" x2="184.39" y1="264.38" y2="280.00" /><line x1="188.18" x2="188.18" y1="265.23" y2="280.00" /><line x1="191.96" x2="191.96" y1="265.78" y2="280.00" /><line x1="195.75" x2="195.75" y1="266.05" y2="280.00" /><line x1="199.54" x2="199.54" y1="266.02" y2="280.00" /><line x1="203.32" x2="203.32" y1="265.71" y2="280.00" /><line x1="207.11" x2="207.11" y1="265.10" y2="280.00" /><line x1="210.89" x2="210.89" y1="264.21" y2="280.00" /><line x1="214.68" x2="214.68" y1="263.04" y2="280.00" /><line x1="218.46" x2="218.46" y1="261.58" y2="280.00" /><line x1="222.25" x2="222.25" y1="259.84" y2="280.00" /><line x1="226.04" x2="226.04" y1="257.83" y2="280.00" /><line x1="229.82" x2="229.82" y1="255.54" y2="280.00" /><line x1="233.61" x2="233.61" y1="253.00" y2="280.00" /><line x1="237.39" x2="237.39" y1="250.19" y2="280.00" /><line x1="241.18" x2="241.18" y1="247.14" y2="280.00" /><line x1="244.96" x2="244.96" y1="243.84" y2="280.00" /><line x1="248.75" x2="248.75" y1="240.31" y2="280.00" /><line x1="252.54" x2="252.54" y1="236.55" y2="280.00" /><line x1="256.32" x2="256.32" y1="232.58" y2="280.00" /><line x1="260.11" x2="260.11" y1="228.40" y2="280.00" /><line x1="263.89" x2="263.89" y1="224.03" y2="280.00" /><line x1="267.68" x2="267.68" y1="219.46" y2="280.00" /><line x1="271.46" x2="271.46" y1="214.73" y2="280.00" /><line x1="275.25" x2="275.25" y1="209.83" y2="280.00" /><line x1="279.04" x2="279.04" y1="204.79" y2="280.00" /><line x1="282.82" x2="282.82" y1="199.61" y2="280.00" /><line x1="286.61" x2="286.61" y1="194.30" y2="280.00" /><line x1="290.39" x2="290.39" y1="188.88" y2="280.00" /><line x1="294.18" x2="294.18" y1="183.37" y2="280.00" /><line x1="297.96" x2="297.96" y1="177.77" y2="280.00" /><line x1="301.75" x2="301.75" y1="172.10" y2="280.00" /><line x1="305.54" x2="305.54" y1="166.38" y2="280.00" /><line x1="309.32" x2="309.32" y1="160.61" y2="280.00" /><line x1="313.11" x2="313.11" y1="154.82" y2="280.00" /><line x1="316.89" x2="316.89" y1="149.02" y2="280.00" /><line x1="320.68" x2="320.68" y1="143.22" y2="280.00" /><line x1="324.46" x2="324.46" y1="137.44" y2="280.00" /><line x1="328.25" x2="328.25" y1="131.69" y2="280.00" /><line x1="332.04" x2="332.04" y1="125.98" y2="280.00" /><line x1="335.82" x2="335.82" y1="120.34" y2="280.00" /><line x1="339.61" x2="339.61" y1="114.76" y2="280.00" /><line x1="343.39" x2="343.39" y1="109.28" y2="280.00" /><line x1="347.18" x2="347.18" y1="103.90" y2="280.00" /><line x1="350.96" x2="350.96" y1="98.63" y2="280.00" /><line x1="354.75" x2="354.75" y1="93.49" y2="280.00" /><line x1="358.54" x2="358.54" y1="88.50" y2="280.00" /><line x1="362.32" x2="362.32" y1="83.65" y2="280.00" /><line x1="366.11" x2="366.11" y1="78.98" y2="280.00" /><line x1="369.89" x2="369.89" y1="74.48" y2="280.00" /><line x1="373.68" x2="373.68" y1="70.17" y2="280.00" /><line x1="377.46" x2="377.46" y1="66.05" y2="280.00" /><line x1="381.25" x2="381.25" y1="62.15" y2="280.00" /><line x1="385.04" x2="385.04" y1="58.47" y2="280.00" /><line x1="388.82" x2="388.82" y1="55.02" y2="280.00" /><line x1="392.61" x2="392.61" y1="51.80" y2="280.00" /><line x1="396.39" x2="396.39" y1="48.83" y2="280.00" /><line x1="400.18" x2="400.18" y1="46.11" y2="280.00" /><line x1="403.96" x2="403.96" y1="43.66" y2="280.00" /><line x1="407.75" x2="407.75" y1="41.46" y2="280.00" /><line x1="411.54" x2="411.54" y1="39.54" y2="280.00" /><line x1="415.32" x2="415.32" y1="37.90" y2="280.00" /><line x1="419.11" x2="419.11" y1="36.53" y2="280.00" /><line x1="422.89" x2="422.89" y1="35.45" y2="280.00" /><line x1="426.68" x2="426.68" y1="34.66" y2="280.00" /><line x1="430.46" x2="430.46" y1="34.15" y2="280.00" /><line x1="434.25" x2="434.25" y1="33.93" y2="280.00" /><line x1="438.04" x2="438.04" y1="34.01" y2="280.00" /><line x1="441.82" x2="441.82" y1="34.37" y2="280.00" /><line x1="445.61" x2="445.61" y1="35.02" y2="280.00" /><line x1="449.39" x2="449.39" y1="35.96" y2="280.00" /><line x1="453.18" x2="453.18" y1="37.19" y2="280.00" /><line x1="456.96" x2="456.96" y1="38.69" y2="280.00" /><line x1="460.75" x2="460.75" y1="40.48" y2="280.00" /><line x1="464.54" x2="464.54" y1="42.54" y2="280.00" /><line x1="468.32" x2="468.32" y1="44.86" y2="280.00" /><line x1="472.11" x2="472.11" y1="47.45" y2="280.00" /><line x1="475.89" x2="475.89" y1="50.30" y2="280.00" /><line x1="479.68" x2="479.68" y1="53.39" y2="280.00" /><line x1="483.46" x2="483.46" y1="56.73" y2="280.00" /><line x1="487.25" x2="487.25" y1="60.30" y2="280.00" /><line x1="491.04" x2="491.04" y1="64.09" y2="280.00" /><line x1="494.82" x2="494.82" y1="68.10" y2="280.00" /><line x1="498.61" x2="498.61" y1="72.32" y2="280.00" /><line x1="502.39" x2="502.39" y1="76.72" y2="280.00" /><line x1="506.18" x2="506.18" y1="81.32" y2="280.00" /><line x1="509.96" x2="509.96" y1="86.08" y2="280.00" /><line x1="513.75" x2="513.75" y1="91.00" y2="280.00" /><line x1="517.54" x2="517.54" y1="96.07" y2="280.00" /><line x1="521.32" x2="521.32" y1="101.27" y2="280.00" /><line x1="525.11" x2="525.11" y1="106.60" y2="280.00" /><line x1="528.89" x2="528.89" y1="112.04" y2="280.00" /><line x1="532.68" x2="532.68" y1="117.57" y2="280.00" /><line x1="536.46" x2="536.46" y1="123.18" y2="280.00" /><line x1="540.25" x2="540.25" y1="128.85" y2="280.00" /><line x1="544.04" x2="544.04" y1="134.58" y2="280.00" /><line x1="547.82" x2="547.82" y1="140.35" y2="280.00" /><line x1="551.61" x2="551.61" y1="146.15" y2="280.00" /></g><g stroke-width="4px" stroke="#00aaff"><line x1="78.39" x2="78.39" y1="266.07" y2="280.00" /><line x1="82.18" x2="82.18" y1="265.93" y2="280.00" /><line x1="85.96" x2="85.96" y1="265.49" y2="280.00" /><line x1="89.75" x2="89.75" y1="264.77" y2="280.00" /><line x1="93.54" x2="93.54" y1="263.76" y2="280.00" /><line x1="97.32" x2="97.32" y1="262.46" y2="280.00" /><line x1="101.11" x2="101.11" y1="260.89" y2="280.00" /><line x1="104.89" x2="104.89" y1="259.03" y2="280.00" /><line x1="108.68" x2="108.68" y1="256.91" y2="280.00" /><line x1="112.46" x2="112.46" y1="254.52" y2="280.00" /><line x1="116.25" x2="116.25" y1="251.86" y2="280.00" /><line x1="120.04" x2="120.04" y1="248.95" y2="280.00" /><line x1="123.82" x2="123.82" y1="245.80" y2="280.00" /><line x1="127.61" x2="127.61" y1="242.40" y2="280.00" /><line x1="131.39" x2="131.39" y1="238.78" y2="280.00" /><line x1="135.18" x2="135.18" y1="234.93" y2="280.00" /><line x1="138.96" x2="138.96" y1="230.87" y2="280.00" /><line x1="142.75" x2="142.75" y1="226.60" y2="280.00" /><line x1="146.54" x2="146.54" y1="222.15" y2="280.00" /><line x1="150.32" x2="150.32" y1="217.52" y2="280.00" /><line x1="154.11" x2="154.11" y1="212.71" y2="280.00" /><line x1="157.89" x2="157.89" y1="207.75" y2="280.00" /><line x1="161.68" x2="161.68" y1="202.65" y2="280.00" /><line x1="165.46" x2="165.46" y1="197.41" y2="280.00" /><line x1="169.25" x2="169.25" y1="192.06" y2="280.00" /><line x1="173.04" x2="173.04" y1="186.60" y2="280.00" /><line x1="176.82" x2="176.82" y1="181.05" y2="280.00" /><line x1="180.61" x2="180.61" y1="175.42" y2="280.00" /><line x1="184.39" x2="184.39" y1="169.73" y2="280.00" /><line x1="188.18" x2="188.18" y1="163.99" y2="280.00" /><line x1="191.96" x2="191.96" y1="158.21" y2="280.00" /><line x1="195.75" x2="195.75" y1="152.41" y2="280.00" /><line x1="199.54" x2="199.54" y1="146.61" y2="280.00" /><line x1="203.32" x2="203.32" y1="140.81" y2="280.00" /><line x1="207.11" x2="207.11" y1="135.04" y2="280.00" /><line x1="210.89" x2="210.89" y1="129.31" y2="280.00" /><line x1="214.68" x2="214.68" y1="123.63" y2="280.00" /><line x1="218.46" x2="218.46" y1="118.01" y2="280.00" /><line x1="222.25" x2="222.25" y1="112.47" y2="280.00" /><line x1="226.04" x2="226.04" y1="107.03" y2="280.00" /><line x1="229.82" x2="229.82" y1="101.69" y2="280.00" /><line x1="233.61" x2="233.61" y1="96.48" y2="280.00" /><line x1="237.39" x2="237.39" y1="91.40" y2="280.00" /><line x1="241.18" x2="241.18" y1="86.46" y2="280.00" /><line x1="244.96" x2="244.96" y1="81.69" y2="280.00" /><line x1="248.75" x2="248.75" y1="77.08" y2="280.00" /><line x1="252.54" x2="252.54" y1="72.66" y2="280.00" /><line x1="256.32" x2="256.32" y1="68.43" y2="280.00" /><line x1="260.11" x2="260.11" y1="64.41" y2="280.00" /><line x1="263.89" x2="263.89" y1="60.59" y2="280.00" /><line x1="267.68" x2="267.68" y1="57.01" y2="280.00" /><line x1="271.46" x2="271.46" y1="53.65" y2="280.00" /><line x1="275.25" x2="275.25" y1="50.54" y2="280.00" /><line x1="279.04" x2="279.04" y1="47.67" y2="280.00" /><line x1="282.82" x2="282.82" y1="45.06" y2="280.00" /><line x1="286.61" x2="286.61" y1="42.71" y2="280.00" /><line x1="290.39" x2="290.39" y1="40.63" y2="280.00" /><line x1="294.18" x2="294.18" y1="38.82" y2="280.00" /><line x1="297.96" x2="297.96" y1="37.30" y2="280.00" /><line x1="301.75" x2="301.75" y1="36.05" y2="280.00" /><line x1="305.54" x2="305.54" y1="35.09" y2="280.00" /><line x1="309.32" x2="309.32" y1="34.41" y2="280.00" /><line x1="313.11" x2="313.11" y1="34.02" y2="280.00" /><line x1="316.89" x2="316.89" y1="33.93" y2="280.00" /><line x1="320.68" x2="320.68" y1="34.12" y2="280.00" /><line x1="324.46" x2="324.46" y1="34.61" y2="280.00" /><line x1="328.25" x2="328.25" y1="35.38" y2="280.00" /><line x1="332.04" x2="332.04" y1="36.44" y2="280.00" /><line x1="335.82" x2="335.82" y1="37.78" y2="280.00" /><line x1="339.61" x2="339.61" y1="39.40" y2="280.00" /><line x1="343.39" x2="343.39" y1="41.30" y2="280.00" /><line x1="347.18" x2="347.18" y1="43.47" y2="280.00" /><line x1="350.96" x2="350.96" y1="45.91" y2="280.00" /><line x1="354.75" x2="354.75" y1="48.61" y2="280.00" /><line x1="358.54" x2="358.54" y1="51.56" y2="280.00" /><line x1="362.32" x2="362.32" y1="54.75" y2="280.00" /><line x1="366.11" x2="366.11" y1="58.19" y2="280.00" /><line x1="369.89" x2="369.89" y1="61.85" y2="280.00" /><line x1="373.68" x2="373.68" y1="65.74" y2="280.00" /><line x1="377.46" x2="377.46" y1="69.83" y2="280.00" /><line x1="381.25" x2="381.25" y1="74.13" y2="280.00" /><line x1="385.04" x2="385.04" y1="78.61" y2="280.00" /><line x1="388.82" x2="388.82" y1="83.28" y2="280.00" /><line x1="392.61" x2="392.61" y1="88.11" y2="280.00" /><line x1="396.39" x2="396.39" y1="93.09" y2="280.00" /><line x1="400.18" x2="400.18" y1="98.22" y2="280.00" /><line x1="403.96" x2="403.96" y1="103.48" y2="280.00" /><line x1="407.75" x2="407.75" y1="108.85" y2="280.00" /><line x1="411.54" x2="411.54" y1="114.32" y2="280.00" /><line x1="415.32" x2="415.32" y1="119.89" y2="280.00" /><line x1="419.11" x2="419.11" y1="125.53" y2="280.00" /><line x1="422.89" x2="422.89" y1="131.23" y2="280.00" /><line x1="426.68" x2="426.68" y1="136.98" y2="280.00" /><line x1="430.46" x2="430.46" y1="142.76" y2="280.00" /><line x1="434.25" x2="434.25" y1="148.56" y2="280.00" /><line x1="438.04" x2="438.04" y1="154.36" y2="280.00" /><line x1="441.82" x2="441.82" y1="160.15" y2="280.00" /><line x1="445.61" x2="445.61" y1="165.92" y2="280.00" /><line x1="449.39" x2="449.39" y1="171.65" y2="280.00" /><line x1="453.18" x2="453.18" y1="177.32" y2="280.00" /><line x1="456.96" x2="456.96" y1="182.92" y2="280.00" /><line x1="460.75" x2="460.75" y1="188.45" y2="280.00" /><line x1="464.54" x2="464.54" y1="193.87" y2="280.00" /><line x1="468.32" x2="468.32" y1="199.19" y2="280.00" /><line x1="472.11" x2="472.11" y1="204.38" y2="280.00" /><line x1="475.89" x2="475.89" y1="209.44" y2="280.00" /><line x1="479.68" x2="479.68" y1="214.35" y2="280.00" /><line x1="483.46" x2="483.46" y1="219.09" y2="280.00" /><line x1="487.25" x2="487.25" y1="223.67" y2="280.00" /><line x1="491.04" x2="491.04" y1="228.06" y2="280.00" /><line x1="494.82" x2="494.82" y1="232.26" y2="280.00" /><line x1="498.61" x2="498.61" y1="236.25" y2="280.00" /><line x1="502.39" x2="502.39" y1="240.02" y2="280.00" /><line x1="506.18" x2="506.18" y1="243.57" y2="280.00" /><line x1="509.96" x2="509.96" y1="246.89" y2="280.00" /><line x1="513.75" x2="513.75" y1="249.96" y2="280.00" /><line x1="517.54" x2="517.54" y1="252.78" y2="280.00" /><line x1="521.32" x2="521.32" y1="255.35" y2="280.00" /><line x1="525.11" x2="525.11" y1="257.65" y2="280.00" /><line x1="528.89" x2="528.89" y1="259.69" y2="280.00" /><line x1="532.68" x2="532.68" y1="261.45" y2="280.00" /><line x1="536.46" x2="536.46" y1="262.93" y2="280.00" /><line x1="540.25" x2="540.25" y1="264.13" y2="280.00" /><line x1="544.04" x2="544.04" y1="265.04" y2="280.00" /><line x1="547.82" x2="547.82" y1="265.67" y2="280.00" /><line x1="551.61" x2="551.61" y1="266.01" y2="280.00" /></g><g stroke="black"><line x1="89.11" x2="89.11" y1="280.00" y2="290.00" /><line x1="145.90" x2="145.90" y1="280.00" y2="290.00" /><line x1="202.68" x2="202.68" y1="280.00" y2="290.00" /><line x1="259.47" x2="259.47" y1="280.00" y2="290.00" /><line x1="316.26" x2="316.26" y1="280.00" y2="290.00" /><line x1="373.04" x2="373.04" y1="280.00" y2="290.00" /><line x1="429.83" x2="429.83" y1="280.00" y2="290.00" /><line x1="486.61" x2="486.61" y1="280.00" y2="290.00" /><line x1="543.40" x2="543.40" y1="280.00" y2="290.00" /><g fill="black" font-family="Arial, sans-serif" font-size="10" stroke="none" text-anchor="middle"><text x="89.11" y="300.00">-2</text><text x="145.90" y="300.00">-2</text><text x="202.68" y="300.00">-1</text><text x="259.47" y="300.00">0</text><text x="316.26" y="300.00">0</text><text x="373.04" y="300.00">0</text><text x="429.83" y="300.00">1</text><text x="486.61" y="300.00">2</text><text x="543.40" y="300.00">2</text></g><line x1="50.00" x2="580.00" y1="280.00" y2="280.00" /></g><g stroke="black"><line x1="50.00" x2="40.00" y1="266.07" y2="266.07" /><line x1="50.00" x2="40.00" y1="242.86" y2="242.86" /><line x1="50.00" x2="40.00" y1="219.64" y2="219.64" /><line x1="50.00" x2="40.00" y1="196.43" y2="196.43" /><line x1="50.00" x2="40.00" y1="173.21" y2="173.21" /><line x1="50.00" x2="40.00" y1="150.00" y2="150.00" /><line x1="50.00" x2="40.00" y1="126.78" y2="126.78" /><line x1="50.00" x2="40.00" y1="103.57" y2="103.57" /><line x1="50.00" x2="40.00" y1="80.36" y2="80.36" /><line x1="50.00" x2="40.00" y1="57.14" y2="57.14" /><line x1="50.00" x2="40.00" y1="33.93" y2="33.93" /><g fill="black" font-family="Arial, sans-serif" font-size="10" stroke="none" text-anchor="end"><text x="35.00" y="266.07">-1.00</text><text x="35.00" y="242.86">-0.80</text><text x="35.00" y="219.64">-0.60</text><text x="35.00" y="196.43">-0.40</text><text x="35.00" y="173.21">-0.20</text><text x="35.00" y="150.00">0.00</text><text x="35.00" y="126.78">0.20</text><text x="35.00" y="103.57">0.40</text><text x="35.00" y="80.36">0.60</text><text x="35.00" y="57.14">0.80</text><text x="35.00" y="33.93">1.00</text></g><line x1="50.00" x2="50.00" y1="280.00" y2="20.00" /></g></g></svg>